<?xml version="1.0" standalone="no"?><!DOCTYPE svg PUBLIC "-//W3C//DTD SVG 1.1//EN" "http://www.w3.org/Graphics/SVG/1.1/DTD/svg11.dtd"><svg width="100%" height="100%" viewBox="0 0 450 450" version="1.1" xmlns="http://www.w3.org/2000/svg" xmlns:xlink="http://www.w3.org/1999/xlink" xml:space="preserve" style="fill-rule:evenodd;clip-rule:evenodd;stroke-linejoin:round;stroke-miterlimit:1.41421;"><path d="M217.795,2.982c3.978,-3.978 10.428,-3.978 14.407,0c34.268,34.269 180.545,180.545 214.814,214.814c3.979,3.979 3.979,10.429 0,14.408c-34.269,34.269 -180.546,180.545 -214.814,214.814c-3.979,3.978 -10.429,3.978 -14.407,0c-34.267,-34.267 -180.53,-180.53 -214.809,-214.808c-1.912,-1.912 -2.986,-4.506 -2.986,-7.21c0,-2.704 1.074,-5.298 2.986,-7.21c34.279,-34.278 180.542,-180.541 214.809,-214.808l0,0Z" style="fill:#fbdb37;"/></svg>