<?xml version="1.0" standalone="no"?><!DOCTYPE svg PUBLIC "-//W3C//DTD SVG 1.1//EN" "http://www.w3.org/Graphics/SVG/1.1/DTD/svg11.dtd"><svg width="100%" height="100%" viewBox="0 0 350 450" version="1.1" xmlns="http://www.w3.org/2000/svg" xmlns:xlink="http://www.w3.org/1999/xlink" xml:space="preserve" style="fill-rule:evenodd;clip-rule:evenodd;stroke-linejoin:round;stroke-miterlimit:1.41421;"><path d="M175.002,0.273c-0.556,-0.559 0.007,-0.069 0.007,-0.069c0,0 0.571,-0.503 -0.007,0.069c1.725,1.738 14.232,13.591 87.835,81.623c97.317,89.949 86.834,152.233 86.834,152.233l0,215.871l-194.702,0l40.049,-0.087l-194.69,0l0,-215.89c0,0 -10.466,-62.268 86.847,-152.216c73.422,-67.865 86.051,-79.776 87.827,-81.534l0,0ZM175.002,12.758c0.546,-0.54 0.006,-0.065 0.006,-0.065c0,0 -0.531,-0.463 -0.006,0.065c-1.677,1.661 -13.604,12.91 -82.948,77.004c-91.907,84.951 -82.022,143.76 -82.022,143.76l0,203.896l183.874,0l-37.824,0.082l183.885,0l0,-203.878c0,0 9.9,-58.824 -82.01,-143.776c-69.513,-64.252 -81.326,-75.447 -82.955,-77.088l0,0Z" style="fill:#fff;"/></svg>