<?xml version="1.0" standalone="no"?><!DOCTYPE svg PUBLIC "-//W3C//DTD SVG 1.1//EN" "http://www.w3.org/Graphics/SVG/1.1/DTD/svg11.dtd"><svg width="100%" height="100%" viewBox="0 0 350 450" version="1.1" xmlns="http://www.w3.org/2000/svg" xmlns:xlink="http://www.w3.org/1999/xlink" xml:space="preserve" style="fill-rule:evenodd;clip-rule:evenodd;stroke-linejoin:round;stroke-miterlimit:1.41421;"><path d="M340.33,35.568c0,0 -52.442,-35.568 -165.003,-35.568c-0.108,0 -0.215,0.004 -0.325,0.004c-0.111,0 -0.223,-0.004 -0.33,-0.004c-112.56,0 -165.003,35.568 -165.003,35.568c0,0 -26.861,148.864 8.958,256.888c27.136,81.853 145.107,151.081 156.375,157.544c11.263,-6.463 129.238,-75.691 156.374,-157.544c35.815,-108.024 8.954,-256.888 8.954,-256.888l0,0ZM331.145,46.092c0,0 -49.528,-33.592 -155.836,-33.592c-0.102,0 -0.203,0.004 -0.307,0.004c-0.105,0 -0.211,-0.004 -0.312,-0.004c-106.306,0 -155.836,33.592 -155.836,33.592c0,0 -25.369,140.594 8.46,242.616c25.629,77.306 137.046,142.688 147.688,148.792c10.637,-6.104 122.058,-71.486 147.687,-148.792c33.825,-102.022 8.456,-242.616 8.456,-242.616l0,0Z" style="fill:#fff;"/></svg>