<?xml version="1.0" standalone="no"?><!DOCTYPE svg PUBLIC "-//W3C//DTD SVG 1.1//EN" "http://www.w3.org/Graphics/SVG/1.1/DTD/svg11.dtd"><svg width="100%" height="100%" viewBox="0 0 450 450" version="1.1" xmlns="http://www.w3.org/2000/svg" xmlns:xlink="http://www.w3.org/1999/xlink" xml:space="preserve" style="fill-rule:evenodd;clip-rule:evenodd;stroke-linejoin:round;stroke-miterlimit:1.41421;"><path d="M217.795,2.982c3.978,-3.978 10.428,-3.978 14.407,0c34.268,34.269 180.545,180.545 214.814,214.814c3.979,3.979 3.979,10.429 0,14.408c-34.269,34.269 -180.546,180.545 -214.814,214.814c-3.979,3.978 -10.429,3.978 -14.407,0c-34.267,-34.267 -180.53,-180.53 -214.809,-214.808c-1.912,-1.912 -2.986,-4.506 -2.986,-7.21c0,-2.704 1.074,-5.298 2.986,-7.21c34.279,-34.278 180.542,-180.541 214.809,-214.808l0,0ZM218.195,15.316c3.757,-3.757 9.849,-3.757 13.607,0c32.364,32.366 170.514,170.515 202.88,202.88c3.757,3.758 3.757,9.85 0,13.608c-32.366,32.365 -170.516,170.514 -202.88,202.88c-3.758,3.757 -9.85,3.757 -13.607,0c-32.363,-32.364 -170.5,-170.501 -202.875,-202.875c-1.806,-1.805 -2.82,-4.255 -2.82,-6.809c0,-2.554 1.014,-5.004 2.82,-6.809c32.375,-32.374 170.512,-170.511 202.875,-202.875l0,0Z" style="fill:#000;"/></svg>