<?xml version="1.0" encoding="UTF-8" standalone="no"?>
<svg width="44px" height="44px" viewBox="0 0 44 44" version="1.1" xmlns="http://www.w3.org/2000/svg" xmlns:xlink="http://www.w3.org/1999/xlink" xmlns:sketch="http://www.bohemiancoding.com/sketch/ns">
    <!-- Generator: sketchtool 3.5.1 (25234) - http://www.bohemiancoding.com/sketch -->
    <title>facebook</title>
    <desc>Created with sketchtool.</desc>
    <defs></defs>
    <g id="Diseño" stroke="none" stroke-width="1" fill="none" fill-rule="evenodd" sketch:type="MSPage">
        <g id="Productos" sketch:type="MSArtboardGroup" transform="translate(-638.000000, -3305.000000)">
            <g id="footer" sketch:type="MSLayerGroup" transform="translate(0.000000, 3168.000000)">
                <g id="redes" transform="translate(638.000000, 137.000000)" sketch:type="MSShapeGroup">
                    <g id="facebook">
                        <rect id="Rectangle" x="0" y="0" width="44" height="44"></rect>
                        <ellipse id="Oval" fill="#FFFFFF" cx="22" cy="22" rx="22" ry="22"></ellipse>
                        <path d="M23.3147057,35 L18.4372418,35 L18.4372418,23.4985483 L16,23.4985483 L16,19.535534 L18.4372418,19.535534 L18.4372418,17.1562737 C18.4372418,13.9234411 19.8127074,12 23.7230238,12 L26.9776468,12 L26.9776468,15.964466 L24.9435074,15.964466 C23.4212558,15.964466 23.3206665,16.5182719 23.3206665,17.5518493 L23.3139606,19.535534 L27,19.535534 L26.5685836,23.4985483 L23.3139606,23.4985483 L23.3139606,35 L23.3147057,35 Z" id="Shape" fill="#282C23"></path>
                    </g>
                </g>
            </g>
        </g>
    </g>
</svg>