<?xml version="1.0" standalone="no"?><!DOCTYPE svg PUBLIC "-//W3C//DTD SVG 1.1//EN" "http://www.w3.org/Graphics/SVG/1.1/DTD/svg11.dtd"><svg width="100%" height="100%" viewBox="0 0 2700 800" version="1.1" xmlns="http://www.w3.org/2000/svg" xmlns:xlink="http://www.w3.org/1999/xlink" xml:space="preserve" style="fill-rule:evenodd;clip-rule:evenodd;stroke-linejoin:round;stroke-miterlimit:1.41421;"><ellipse cx="469.938" cy="363" rx="175" ry="225" style="fill:#223e3e;"/><rect x="707.546" y="138" width="350" height="450" style="fill:#223e3e;"/><path d="M1307.55,145.071c3.905,-3.905 10.236,-3.905 14.142,0c33.637,33.638 177.22,177.22 210.858,210.858c3.905,3.905 3.905,10.237 0,14.142c-33.638,33.638 -177.221,177.22 -210.858,210.858c-3.906,3.905 -10.237,3.905 -14.142,0c-33.636,-33.636 -177.205,-177.205 -210.853,-210.852c-1.877,-1.877 -2.931,-4.423 -2.931,-7.077c0,-2.654 1.054,-5.2 2.931,-7.077c33.648,-33.647 177.217,-177.216 210.853,-210.852Z" style="fill:#223e3e;"/><path d="M1933.52,173.568c0,0 -52.583,-35.568 -165.446,-35.568c-0.108,0 -0.215,0.004 -0.326,0.004c-0.111,0 -0.223,-0.004 -0.33,-0.004c-112.862,0 -165.446,35.568 -165.446,35.568c0,0 -26.933,148.864 8.982,256.888c27.209,81.853 145.496,151.081 156.794,157.544c11.294,-6.463 129.585,-75.691 156.794,-157.544c35.911,-108.024 8.978,-256.888 8.978,-256.888Z" style="fill:#223e3e;fill-rule:nonzero;"/><path d="M2230.07,138.204c0,0 9.478,-8.343 -87.834,81.603c-97.313,89.948 -86.846,152.216 -86.846,152.216l0,215.89l194.689,0l-40.049,0.087l194.702,0l0,-215.871c0,0 10.483,-62.284 -86.834,-152.233c-97.313,-89.948 -87.828,-81.692 -87.828,-81.692Z" style="fill:#223e3e;fill-rule:nonzero;"/></svg>