<?xml version="1.0" encoding="UTF-8" standalone="no"?>
<svg width="168px" height="30px" viewBox="0 0 168 30" version="1.1" xmlns="http://www.w3.org/2000/svg" xmlns:xlink="http://www.w3.org/1999/xlink" xmlns:sketch="http://www.bohemiancoding.com/sketch/ns">
    <!-- Generator: Sketch 3.5.1 (25234) - http://www.bohemiancoding.com/sketch -->
    <title>logo</title>
    <desc>Created with Sketch.</desc>
    <defs></defs>
    <g id="Diseño" stroke="none" stroke-width="1" fill="none" fill-rule="evenodd" sketch:type="MSPage">
        <g id="Inicio" sketch:type="MSArtboardGroup" transform="translate(-371.000000, -40.000000)" fill="#FFFFFF">
            <g id="header" sketch:type="MSLayerGroup">
                <g id="logo" transform="translate(371.000000, 40.000000)" sketch:type="MSShapeGroup">
                    <path d="M16.0616263,20.8387969 C15.817234,21.2484844 11.4027237,23.2130156 11.4027237,23.2130156 L6.05512196,23.1375469 L6.05512196,11.3733281 C10.2729948,11.3733281 12.909341,13.6355156 12.909341,13.6355156 L15.5456871,10.1662969 L5.97974427,10.0908281 L5.97974427,2.39910937 C5.97974427,2.39910937 10.2729948,2.24817187 11.6288568,2.24817187 C12.9847187,2.24817187 15.8467296,4.13348438 15.8467296,4.13348438 L16.2236181,0.588796875 L1.15931811,0.664265625 L0.330631795,1.11707813 C1.46036065,1.26754688 2.74084488,2.85145313 2.74084488,2.85145313 C2.74084488,2.85145313 2.96697792,22.0814531 2.96697792,22.6847344 C2.96697792,23.2884844 0.406009476,24.7209844 0.406009476,24.7209844 L16.0728627,24.7964531 C16.0728627,24.7964531 16.9010808,24.3445781 16.6000383,24.1177031 C16.3341096,23.9180156 16.068649,21.2545781 16.0616263,20.8387969" id="Fill-2"></path>
                    <path d="M24.7346947,22.9110937 L24.8100724,0.7396875 L18.709162,0.66421875 C20.1399334,1.04203125 21.571173,3.83203125 21.571173,3.83203125 C21.571173,3.83203125 21.4957953,22.6851563 21.4957953,23.2129687 C21.4957953,23.74125 20.2153111,24.9478125 20.2153111,24.9478125 L31.3627807,24.9478125 C33.0201533,24.9478125 34.6770578,25.5510937 34.6770578,25.5510937 C34.6770578,23.5898438 36.4847176,19.970625 36.4847176,19.970625 L30.4591849,22.9110937 L24.7346947,22.9110937 L24.7346947,22.9110937 Z" id="Fill-3"></path>
                    <path d="M44.544324,22.9866094 L44.6197017,0.815203125 L38.5187913,0.739734375 C39.9495627,1.11707813 41.3808023,3.90707813 41.3808023,3.90707813 C41.3808023,3.90707813 41.3054246,22.7606719 41.3054246,23.2884844 C41.3054246,23.8167656 40.0249404,25.0228594 40.0249404,25.0228594 L51.17241,25.0228594 C52.8297826,25.0228594 54.4866871,25.6261406 54.4866871,25.6261406 C54.4866871,23.6653594 56.2943469,20.0461406 56.2943469,20.0461406 L50.2688142,22.9866094 L44.544324,22.9866094 L44.544324,22.9866094 Z" id="Fill-4"></path>
                    <path d="M74.4518473,0.665625 C74.9846411,0.67828125 76.8573785,3.0796875 76.8573785,3.83203125 C76.8573785,4.58578125 76.1794476,5.4909375 76.1794476,5.4909375 L69.8524041,14.7665625 C69.8524041,14.7665625 64.354047,4.8121875 64.4294247,3.22875 C64.4935659,1.8740625 65.491735,1.45875 65.6860315,1.41375 C65.5240397,1.40578125 65.1822651,0.58921875 65.1822651,0.58921875 L57.499828,0.7396875 C59.3828655,0.890625 67.5175687,17.9339063 67.5175687,17.9339063 L60.4372167,29.9245313 L66.538127,30 C65.2576428,30 63.7514937,28.3410938 63.7514937,28.1151563 C63.7514937,27.8882813 81.1506291,0.7396875 81.1506291,0.7396875 C81.1506291,0.7396875 74.9242453,0.67546875 74.4518473,0.665625" id="Fill-7"></path>
                    <path d="M86.2723787,6.69754688 C86.1220915,1.26801563 95.6875662,0.513796875 97.721359,6.99942188 C97.721359,6.99942188 98.39929,2.47457812 99.2275081,2.17270312 C99.2275081,2.17270312 94.0306617,0.438328125 92.2225337,0.438328125 C90.4153421,0.438328125 82.9581016,1.87129687 82.8831921,8.43192187 C82.8078144,14.9930156 97.1188057,13.4845781 97.3444706,18.9141094 C97.5710718,24.3441094 86.7246448,25.0228594 84.5405648,17.6325469 C84.5405648,17.6325469 83.8626338,22.8356719 82.8078144,22.9111406 C81.7534633,22.9866094 88.0800385,24.8714531 90.641007,24.7964531 C93.2024436,24.7209844 100.207418,24.5705156 100.507992,17.4061406 C100.809971,10.2417656 86.4231341,12.1270781 86.2723787,6.69754688" id="Fill-8"></path>
                    <path d="M109.998885,23.2127812 L109.923508,0.58903125 L102.165693,0.6645 C104.04873,0.81590625 106.684608,3.98325 106.684608,3.98325 L106.835363,23.3637187 L105.404124,24.9471563 L111.053236,24.7962188 C110.526061,24.7962188 109.998885,23.2127812 109.998885,23.2127812" id="Fill-9"></path>
                    <path d="M132.896518,0.966375 L132.369343,0.66403125 L127.323251,0.58903125 L126.644852,1.26778125 C128.904778,3.002625 131.239614,6.471375 131.164704,12.5796562 C131.089326,18.6884062 128.678645,22.9109062 123.782373,22.7604375 C118.886569,22.6099687 116.174846,18.9898125 116.099936,12.7305937 C116.024558,6.471375 120.468564,1.11684375 120.468564,1.11684375 L120.242899,0.4385625 L114.969739,0.51403125 L113.990766,1.04184375 L113.689723,0.966375 C114.442563,1.11684375 116.777867,3.002625 116.852776,3.831375 C116.928622,4.66153125 112.484148,7.67746875 112.408771,13.2584062 C112.379743,15.4465312 113.614345,24.947625 123.632086,24.947625 C133.649827,24.947625 135.005689,16.4252812 135.306731,12.7305937 C135.608242,9.0354375 130.71197,4.28465625 130.787348,3.3035625 C130.862725,2.323875 132.896518,0.966375 132.896518,0.966375" id="Fill-10"></path>
                    <path d="M167.39398,0.513609375 L163.47715,0.589078125 C163.47715,0.589078125 153.082989,12.3532969 153.158367,12.5797031 C153.233744,12.8065781 142.989871,0.438140625 142.989871,0.438140625 L136.662827,0.664546875 C137.190003,0.740015625 140.503812,3.15314062 140.503812,3.15314062 C140.503812,3.15314062 140.428902,21.4029844 140.278147,22.6850156 C140.127391,23.9670469 138.69662,24.7217344 138.69662,24.7217344 L145.550839,24.7217344 C144.49602,24.6457969 142.236562,20.6487656 142.236562,20.6487656 L142.31194,5.18985937 L152.932234,16.5012656 L163.176107,3.45454687 C163.176107,3.45454687 163.326395,20.9511094 163.326395,21.7798594 C163.326395,22.6095469 161.895623,24.7217344 161.895623,24.7217344 L166.942182,24.7962656 C166.415007,24.8717344 165.737076,23.5147031 165.737076,23.5147031 C165.737076,23.5147031 165.510943,2.62532812 165.661698,1.87110937 C165.812454,1.11689062 167.39398,0.513609375 167.39398,0.513609375" id="Fill-11"></path>
                </g>
            </g>
        </g>
    </g>
</svg>